<svg width="92" height="60" viewBox="0 0 92 60" fill="none" xmlns="http://www.w3.org/2000/svg">
<path d="M13.9141 33.6847H14.4297C17.1094 33.6847 19.6094 34.4972 21.9297 36.1222C22.875 37.0363 23.3477 37.9152 23.3477 38.7589C23.3477 40.6652 21.3555 43.5714 17.3711 47.4777C15.2773 49.0167 13.1797 50.2355 11.0781 51.1339C8.67188 51.837 7.18359 52.4113 6.61328 52.8566L5.5 52.7511C4.24219 53.3605 3.46484 53.6652 3.16797 53.6652L3.0625 53.5597L3.36719 53.0558H3.27344L2.66406 53.255L2.55859 52.6456L2.75781 52.2472H2.66406L2.16016 52.4464L2.05469 52.3409V52.2472L2.16016 51.9425H2.05469L1.64453 52.048C1.44141 52.048 1.33984 51.9113 1.33984 51.6378C1.00391 51.5909 0.835938 51.4894 0.835938 51.3331C1.13281 51.0128 1.57422 50.7433 2.16016 50.5245C3.31641 49.6417 4.90234 46.8683 6.91797 42.2042C8.13672 39.3995 8.74609 37.8097 8.74609 37.4347C7.51953 37.4347 6.57422 36.6261 5.91016 35.0089C5.91016 34.4386 8.57812 33.9972 13.9141 33.6847ZM9.46094 47.2784C15.2031 44.5988 18.0742 42.0636 18.0742 39.673C18.0742 38.1027 16.8242 37.1222 14.3242 36.7316C13.8242 36.7316 13.4531 37.337 13.2109 38.548L9.46094 47.2784ZM32.5398 32.7706H33.4539C38.0086 32.7706 40.6961 34.2667 41.5164 37.2589L41.6219 37.88V38.1847C41.6219 39.0831 39.5789 40.5792 35.493 42.673C36.5164 47.0089 37.0281 50.0363 37.0281 51.755L37.1336 51.8605V51.9542L37.0281 52.2706L37.1336 53.1847L37.0281 53.2902H36.8289C36.8289 53.0167 36.7586 52.88 36.618 52.88C36.618 53.0831 36.5516 53.1847 36.4188 53.1847H36.2078L36.1141 53.0792H36.0086C35.907 53.3527 35.8055 53.4894 35.7039 53.4894L35.1883 53.3839L34.9891 53.5948C34.9422 53.2511 34.7703 53.0792 34.4734 53.0792C33.3875 50.548 32.4383 47.6222 31.6258 44.3019L27.032 45.837C26.6102 46.798 26.2703 47.3409 26.0125 47.4659L25.907 47.9816H25.6023L26.0125 46.8566V46.7511H25.907L25.3914 47.8761L25.6023 48.087C25.3445 48.087 24.8328 48.798 24.0672 50.2198C23.9734 50.2277 23.7703 50.673 23.4578 51.5558C23.3172 51.5558 22.9773 52.2355 22.4383 53.5948H22.3328C22.3328 53.2823 21.993 53.0089 21.3133 52.7745L21.1141 52.9855C21.1141 52.8448 21.0086 52.7745 20.7977 52.7745L20.493 52.88C20.3445 52.5128 20.1414 52.3097 19.8836 52.2706V51.9542C19.8836 50.3058 21.7547 45.7472 25.4969 38.2784C24.0672 37.3097 23.3523 36.5284 23.3523 35.9347V35.4308C23.407 35.0714 24.6648 34.4581 27.1258 33.5909C27.4695 33.0441 29.2742 32.7706 32.5398 32.7706ZM29.2703 40.8331H29.4813C33.5672 39.0831 36.0477 37.6886 36.9227 36.6495V36.5441L34.8836 36.4503H34.6844C32.0984 36.4503 30.8055 36.755 30.8055 37.3644C30.0008 39.4191 29.4891 40.5753 29.2703 40.8331ZM72.1445 32.7238C74.5898 32.7238 76.2852 33.6066 77.2305 35.3722L77.8633 38.0206C77.8633 39.1144 74.793 41.1964 68.6523 44.2667C65.4648 45.6339 63.8047 46.4816 63.6719 46.8097C63.1797 47.7238 62.8633 48.1808 62.7227 48.1808C62.3711 48.462 62.0547 48.8839 61.7734 49.4464H61.5625V49.5519L61.457 49.4464H61.3516C61.2031 49.4464 60.9922 49.9073 60.7188 50.8292H60.5078L60.6133 50.9347V51.0402C60.3945 51.0402 59.8633 51.8878 59.0195 53.5831C58.8086 54.4269 58.3867 54.8488 57.7539 54.8488V54.6378H57.6484L57.2266 54.7433L57.1094 54.6378H57.0039L56.6875 54.7433L56.4766 54.5323L56.2656 54.7433L55.5273 53.8995V53.6886C55.5273 52.9855 56.4102 50.798 58.1758 47.1261L57.8594 47.0206L57.9648 46.9152V46.8097L57.4375 46.3761L57.0039 46.4816L56.793 46.1652L56.8984 46.0597V45.9542C56.4766 45.9542 56.2656 45.8488 56.2656 45.6378C57.1328 44.9503 58.5078 44.1378 60.3906 43.2003L62.5117 38.8644H62.4062C61.5625 38.8644 60.75 38.0519 59.9688 36.4269V35.4777C60.5469 34.7433 62.0312 34.1456 64.4219 33.6847C65.7891 33.3956 68.3633 33.0753 72.1445 32.7238ZM66.3203 40.5636H66.4258C68.7227 39.4933 70.8398 38.1847 72.7773 36.6378V36.5323H72.6719C69.7812 36.6417 68.3359 36.8566 68.3359 37.1769L66.3203 40.5636ZM89.6687 32.5948H89.8914C90.2195 32.5948 90.657 32.8488 91.2039 33.3566L91.3094 33.462H91.4148L91.3094 33.8956L91.4148 35.2081C91.2977 36.3722 90.8992 36.9542 90.2195 36.9542H89.5633C86.7195 36.9542 83.1609 37.9347 78.8875 39.8956V40.1066H78.993C84.2742 40.5441 87.1805 41.2706 87.7117 42.2863C88.2195 42.5831 88.4734 43.0948 88.4734 43.8214C88.2781 46.212 87.9891 47.4073 87.6062 47.4073C85.9656 48.6339 84.1492 49.6144 82.157 50.3488C79.1648 51.3722 75.0594 52.5363 69.8406 53.8409L69.7352 53.7355V53.6183L70.4969 53.3019V53.0792L69.3016 53.3019V53.1847C69.3016 53.0206 69.4812 52.9113 69.8406 52.8566V52.6456H69.5125V52.423H69.7352V52.3175L69.0789 52.0948L69.1844 51.9894V51.6613C68.8953 51.6613 68.7508 51.5519 68.7508 51.3331L68.6453 51.4386H68.4227V51.3331L68.5281 51.2277V51.1222H68.3172C68.3172 50.9738 68.2078 50.8995 67.9891 50.8995V50.7941C67.9891 50.4269 70.9305 49.4073 76.8133 47.7355C80.7195 46.3839 82.9734 45.4777 83.575 45.0167C77.3953 44.6105 74.3055 43.9542 74.3055 43.048C73.5789 42.5792 73.2156 41.8917 73.2156 40.9855C73.2156 40.1495 73.6531 39.1691 74.5281 38.0441C79.8406 34.4113 84.8875 32.5948 89.6687 32.5948ZM70.1687 51.9894V52.0948H70.3914V51.9894H70.1687Z" fill="#F5F5F5"/>
<path d="M49.3224 31.6021L49.4311 31.5582C50.1192 31.2802 51.0824 31.662 52.3206 32.7037L52.4731 32.7685L52.6707 33.2574C52.7965 33.5689 52.3833 34.0477 51.4309 34.6936L51.4704 34.7914C53.8732 36.1294 55.4243 37.664 56.1237 39.3952L56.3257 39.895C58.0582 44.1833 57.3247 47.6857 54.125 50.4025C52.9992 51.2449 52.0235 51.833 51.1977 52.1666L50.046 52.6319C46.8008 53.9431 43.7946 53.2281 41.0272 50.4871C40.8068 50.5255 40.4277 49.9835 39.89 48.8611L39.6046 48.1548C38.3052 44.9387 39.4582 41.0771 43.0637 36.5702C45.447 33.981 47.5332 32.325 49.3224 31.6021ZM43.8371 47.4938L43.8766 47.5916C44.3419 48.7434 45.3413 49.1106 46.8748 48.6932L47.7114 48.3552C49.9642 47.445 51.5315 45.3077 52.4135 41.9433C52.4354 41.1424 52.279 40.1608 51.9442 38.9984C51.5044 38.0976 51.1747 37.5735 50.9551 37.4263L50.9344 37.0935C50.3422 36.1699 50.0026 35.7257 49.9157 35.7608C47.9769 36.8643 46.1453 39.1505 44.4208 42.6195C43.5312 44.6304 43.3366 46.2552 43.8371 47.4938Z" fill="#9DFF3C"/>
<path d="M25.0547 7.42688C25.0547 7.54407 25.3164 7.6925 25.8398 7.87219C25.8398 8.14563 26.0234 8.32922 26.3906 8.42297V8.54016L26.2852 8.64563V8.76282C26.5742 8.76282 26.7188 8.83704 26.7188 8.98547L26.6133 9.09094C26.9648 9.09094 27.4062 9.46204 27.9375 10.2042C27.9375 10.5011 24.168 11.0167 16.6289 11.7511C15.8789 11.7511 15.3984 12.3409 15.1875 13.5206C15.0938 13.5206 14.875 14.0753 14.5312 15.1847H14.6367L17.5195 14.9738C17.8555 15.4113 18.1133 15.63 18.293 15.63V16.1925L18.5156 16.5206V16.6261H18.1875V16.7433H18.293L18.9609 16.6261L19.6289 16.8488V16.9659L19.5117 17.0714V17.1886C19.957 17.2823 20.1797 17.3917 20.1797 17.5167C19.2891 18.2277 16.7031 19.005 12.4219 19.8488C9.97656 24.6222 8.53516 27.3214 8.09766 27.9464C7.50391 27.9464 7.20703 28.0558 7.20703 28.2745H7.10156L6.76172 28.0519L6.87891 27.9464V27.5011H6.65625C6.65625 27.7198 6.58203 27.8292 6.43359 27.8292C6.35547 27.462 6.16797 27.2784 5.87109 27.2784V27.3839C5.82422 27.7589 5.71484 27.9464 5.54297 27.9464L5.4375 27.8292H5.32031L5.09766 28.0519L4.65234 27.5011C4.43359 27.5011 4.32422 27.3878 4.32422 27.1613C4.32422 25.8331 5.46875 22.9503 7.75781 18.5128C9.97656 14.0753 11.0859 11.0089 11.0859 9.3136C11.6719 8.27454 12.2266 7.755 12.75 7.755L14.5312 8.20032C18.5078 7.68469 22.0156 7.42688 25.0547 7.42688Z" fill="#F5F5F5"/>
<path d="M34.3224 5.60214L34.4311 5.55824C35.1192 5.28021 36.0824 5.66205 37.3206 6.70375L37.4731 6.7685L37.6707 7.25745C37.7965 7.56892 37.3833 8.04765 36.4309 8.69364L36.4704 8.79143C38.8732 10.1294 40.4243 11.664 41.1237 13.3952L41.3257 13.895C43.0582 18.1833 42.3247 21.6857 39.125 24.4025C37.9992 25.2449 37.0235 25.833 36.1977 26.1666L35.046 26.6319C31.8008 27.9431 28.7946 27.2281 26.0272 24.4871C25.8068 24.5255 25.4277 23.9835 24.89 22.8611L24.6046 22.1548C23.3052 18.9387 24.4582 15.0771 28.0637 10.5702C30.447 7.98102 32.5332 6.32501 34.3224 5.60214ZM28.8371 21.4938L28.8766 21.5916C29.3419 22.7434 30.3413 23.1106 31.8748 22.6932L32.7114 22.3552C34.9642 21.445 36.5315 19.3077 37.4135 15.9433C37.4354 15.1424 37.279 14.1608 36.9442 12.9984C36.5044 12.0976 36.1747 11.5735 35.9551 11.4263L35.9344 11.0935C35.3422 10.1699 35.0026 9.72572 34.9157 9.76084C32.9769 10.8643 31.1453 13.1505 29.4208 16.6195C28.5312 18.6304 28.3366 20.2552 28.8371 21.4938Z" fill="#9DFF3B"/>
<path d="M50.8633 6.95813H51.3906C52.1953 6.95813 52.8984 7.48547 53.5 8.54016L53.2891 12.7589C53.2891 13.9464 53.4648 14.8995 53.8164 15.6183C53.9648 15.6105 54.6719 14.9034 55.9375 13.4972C56.1719 13.4269 57.5781 12.0558 60.1562 9.38391C61.125 8.04797 62.1133 7.38 63.1211 7.38L63.8594 7.27454C64.5469 7.43079 64.9336 7.64172 65.0195 7.90735C65.1758 7.90735 65.4922 8.1886 65.9688 8.7511V8.96204C65.9688 9.67297 64.9453 12.2784 62.8984 16.7784C62.2031 18.4659 61.7461 19.3097 61.5273 19.3097L61.6328 19.4152V19.5206L60.2617 22.2628C60.1367 22.2706 59.5742 23.4347 58.5742 25.755L57.8359 26.7042H57.0977V26.4933L56.6758 26.7042C56.6758 26.548 56.4297 26.4073 55.9375 26.2823L55.7266 26.4933C55.5312 26.4698 55.3906 26.2941 55.3047 25.9659C55.0234 25.9659 54.8828 25.8956 54.8828 25.755V25.0167C54.8828 23.6495 55.9375 21.0089 58.0469 17.0948C56.9453 18.1105 55.8906 19.3761 54.8828 20.8917C54.6484 20.8917 54.3281 21.1027 53.9219 21.5245H53.8164C53.0664 21.0011 52.3633 20.6847 51.707 20.5753C50.9961 20.0909 50.3633 18.6495 49.8086 16.2511H49.7031C46.6328 23.298 44.9414 26.9581 44.6289 27.2316H44.418L43.8906 26.9152L43.5742 27.0206L43.4688 26.9152L43.3633 27.0206L43.1523 26.5988L42.9414 26.8097L42.8359 26.7042L41.8867 26.9152C41.7305 26.5323 41.5195 26.3214 41.2539 26.2823V25.8605C41.2539 24.173 43.2617 19.3839 47.2773 11.4933C48.2227 8.61047 48.9961 7.16907 49.5977 7.16907L50.8633 6.95813Z" fill="#F5F5F5"/>
<path d="M74.3224 5.60214L74.4311 5.55824C75.1192 5.28021 76.0824 5.66205 77.3206 6.70375L77.4731 6.7685L77.6707 7.25745C77.7965 7.56892 77.3833 8.04765 76.4309 8.69364L76.4704 8.79143C78.8732 10.1294 80.4243 11.664 81.1237 13.3952L81.3257 13.895C83.0582 18.1833 82.3247 21.6857 79.125 24.4025C77.9992 25.2449 77.0235 25.833 76.1977 26.1666L75.046 26.6319C71.8008 27.9431 68.7946 27.2281 66.0272 24.4871C65.8068 24.5255 65.4277 23.9835 64.89 22.8611L64.6046 22.1548C63.3052 18.9387 64.4582 15.0771 68.0637 10.5702C70.447 7.98102 72.5332 6.32501 74.3224 5.60214ZM68.8371 21.4938L68.8766 21.5916C69.3419 22.7434 70.3413 23.1106 71.8748 22.6932L72.7114 22.3552C74.9642 21.445 76.5315 19.3077 77.4135 15.9433C77.4354 15.1424 77.279 14.1608 76.9442 12.9984C76.5044 12.0976 76.1747 11.5735 75.9551 11.4263L75.9344 11.0935C75.3422 10.1699 75.0026 9.72572 74.9157 9.76084C72.9769 10.8643 71.1453 13.1505 69.4208 16.6195C68.5312 18.6304 68.3366 20.2552 68.8371 21.4938Z" fill="#9DFF3B"/>
</svg>
