<svg width="96" height="37" viewBox="0 0 96 37" fill="none" xmlns="http://www.w3.org/2000/svg">
<g filter="url(#filter0_d_91_126)">
<path d="M24.7309 -0.00012207C24.7309 0.117065 24.9926 0.265503 25.516 0.44519C25.516 0.718628 25.6996 0.902222 26.0668 0.995972V1.11316L25.9613 1.21863V1.33582C26.2504 1.33582 26.3949 1.41004 26.3949 1.55848L26.2895 1.66394C26.641 1.66394 27.0824 2.03504 27.6137 2.77723C27.6137 3.0741 23.8441 3.58973 16.3051 4.3241C15.5551 4.3241 15.0746 4.91394 14.8637 6.09363C14.7699 6.09363 14.5512 6.64832 14.2074 7.75769H14.3129L17.1957 7.54676C17.5316 7.98426 17.7895 8.20301 17.9691 8.20301V8.76551L18.1918 9.09363V9.1991H17.8637V9.31629H17.9691L18.6371 9.1991L19.3051 9.42175V9.53894L19.1879 9.64441V9.7616C19.6332 9.85535 19.8559 9.96472 19.8559 10.0897C18.9652 10.8007 16.3793 11.578 12.0981 12.4218C9.65274 17.1952 8.21133 19.8944 7.77383 20.5194C7.18008 20.5194 6.88321 20.6288 6.88321 20.8475H6.77774L6.4379 20.6249L6.55508 20.5194V20.0741H6.33243C6.33243 20.2928 6.25821 20.4022 6.10977 20.4022C6.03165 20.035 5.84415 19.8514 5.54727 19.8514V19.9569C5.5004 20.3319 5.39102 20.5194 5.21915 20.5194L5.11368 20.4022H4.99649L4.77383 20.6249L4.32852 20.0741C4.10977 20.0741 4.0004 19.9608 4.0004 19.7343C4.0004 18.4061 5.14493 15.5233 7.43399 11.0858C9.65274 6.64832 10.7621 3.58191 10.7621 1.8866C11.3481 0.847538 11.9027 0.328003 12.4262 0.328003L14.2074 0.773315C18.184 0.25769 21.6918 -0.00012207 24.7309 -0.00012207Z" fill="white"/>
<path d="M31.0004 20.3085H30.8832C30.141 20.3085 29.391 19.5936 28.6332 18.1639L28.516 18.0468V17.5194C28.516 17.1835 29.0785 16.8944 30.2035 16.6522V16.5468C28.477 14.4061 27.6137 12.4022 27.6137 10.535V9.99597C27.6137 5.37097 29.6059 2.39832 33.5902 1.078C34.9496 0.718628 36.0746 0.53894 36.9652 0.53894H38.2074C41.7074 0.53894 44.227 2.32801 45.766 5.90613C45.9848 5.95301 46.1332 6.59754 46.2113 7.83973V8.60144C46.2113 12.0702 43.6957 15.2186 38.6645 18.0468C35.4848 19.5546 32.9301 20.3085 31.0004 20.3085ZM42.0395 7.62879V7.52332C42.0395 6.28113 41.2504 5.56629 39.6723 5.37879H38.7699C36.3402 5.37879 34.0863 6.77332 32.0082 9.56238C31.6879 10.2968 31.4652 11.2655 31.3402 12.4686C31.4106 13.4686 31.5199 14.078 31.6684 14.2968L31.5629 14.6132C31.766 15.6913 31.9145 16.2303 32.0082 16.2303C34.2191 15.9335 36.7738 14.4999 39.6723 11.9296C41.2504 10.3983 42.0395 8.96473 42.0395 7.62879Z" fill="white"/>
<path d="M55.8207 0.620972H56.3481C57.1527 0.620972 57.8559 1.14832 58.4574 2.20301L58.2465 6.42176C58.2465 7.60926 58.4223 8.56238 58.7738 9.28113C58.9223 9.27332 59.6293 8.56629 60.8949 7.16004C61.1293 7.08973 62.5356 5.71863 65.1137 3.04676C66.0824 1.71082 67.0707 1.04285 68.0785 1.04285L68.8168 0.937378C69.5043 1.09363 69.891 1.30457 69.977 1.57019C70.1332 1.57019 70.4496 1.85144 70.9262 2.41394V2.62488C70.9262 3.33582 69.9027 5.94128 67.8559 10.4413C67.1606 12.1288 66.7035 12.9725 66.4848 12.9725L66.5902 13.078V13.1835L65.2191 15.9257C65.0941 15.9335 64.5316 17.0975 63.5316 19.4178L62.7934 20.3671H62.0551V20.1561L61.6332 20.3671C61.6332 20.2108 61.3871 20.0702 60.8949 19.9452L60.684 20.1561C60.4887 20.1327 60.3481 19.9569 60.2621 19.6288C59.9809 19.6288 59.8402 19.5585 59.8402 19.4178V18.6796C59.8402 17.3124 60.8949 14.6718 63.0043 10.7577C61.9027 11.7733 60.8481 13.0389 59.8402 14.5546C59.6059 14.5546 59.2856 14.7655 58.8793 15.1874H58.7738C58.0238 14.6639 57.3207 14.3475 56.6645 14.2382C55.9535 13.7538 55.3207 12.3124 54.766 9.91394H54.6606C51.5902 16.9608 49.8988 20.621 49.5863 20.8944H49.3754L48.8481 20.578L48.5316 20.6835L48.4262 20.578L48.3207 20.6835L48.1098 20.2616L47.8988 20.4725L47.7934 20.3671L46.8441 20.578C46.6879 20.1952 46.477 19.9843 46.2113 19.9452V19.5233C46.2113 17.8358 48.2191 13.0468 52.2348 5.15613C53.1801 2.27332 53.9535 0.831909 54.5551 0.831909L55.8207 0.620972Z" fill="white"/>
<path d="M75.9172 20.5194H75.8C75.0578 20.5194 74.3078 19.8046 73.55 18.3749L73.4328 18.2577V17.7303C73.4328 17.3944 73.9953 17.1053 75.1203 16.8632V16.7577C73.3938 14.6171 72.5305 12.6132 72.5305 10.746V10.2069C72.5305 5.58191 74.5227 2.60925 78.5071 1.28894C79.8664 0.929565 80.9914 0.749878 81.8821 0.749878H83.1243C86.6243 0.749878 89.1438 2.53894 90.6828 6.11707C90.9016 6.16394 91.05 6.80848 91.1282 8.05066V8.81238C91.1282 12.2811 88.6125 15.4296 83.5813 18.2577C80.4016 19.7655 77.8469 20.5194 75.9172 20.5194ZM86.9563 7.83973V7.73426C86.9563 6.49207 86.1672 5.77723 84.5891 5.58973H83.6868C81.2571 5.58973 79.0032 6.98425 76.925 9.77332C76.6047 10.5077 76.3821 11.4764 76.2571 12.6796C76.3274 13.6796 76.4368 14.2889 76.5852 14.5077L76.4797 14.8241C76.6828 15.9022 76.8313 16.4413 76.925 16.4413C79.136 16.1444 81.6907 14.7108 84.5891 12.1405C86.1672 10.6093 86.9563 9.17566 86.9563 7.83973Z" fill="white"/>
</g>
<path d="M5.10196 33.9999V25.5975H7.42227C10.3832 25.5975 11.8637 26.9628 11.8637 29.6932C11.8637 30.9901 11.4516 32.0331 10.6273 32.8221C9.80704 33.6073 8.70743 33.9999 7.32852 33.9999H5.10196ZM6.08633 26.4882V33.1093H7.34024C8.4418 33.1093 9.29922 32.8143 9.91251 32.2245C10.5258 31.6346 10.8324 30.7987 10.8324 29.7167C10.8324 27.5643 9.6879 26.4882 7.39883 26.4882H6.08633ZM31.1195 33.9999H29.9476L28.5413 31.6444C28.4124 31.4257 28.2874 31.2401 28.1663 31.0878C28.0452 30.9315 27.9202 30.8046 27.7913 30.7069C27.6663 30.6093 27.5296 30.5389 27.3812 30.496C27.2366 30.4491 27.0726 30.4257 26.889 30.4257H26.0804V33.9999H25.096V25.5975H27.6038C27.971 25.5975 28.3089 25.6444 28.6175 25.7382C28.93 25.828 29.1995 25.9667 29.4261 26.1542C29.6566 26.3417 29.8363 26.576 29.9652 26.8573C30.0941 27.1346 30.1585 27.4608 30.1585 27.8358C30.1585 28.1288 30.1136 28.3983 30.0238 28.6444C29.9378 28.8866 29.8128 29.1034 29.6488 29.2948C29.4886 29.4862 29.2933 29.6503 29.0628 29.787C28.8363 29.9198 28.5804 30.0233 28.2952 30.0975V30.121C28.4359 30.1835 28.557 30.2557 28.6585 30.3378C28.764 30.4159 28.8636 30.5096 28.9573 30.619C29.0511 30.7284 29.1429 30.8534 29.2327 30.994C29.3265 31.1307 29.43 31.2909 29.5433 31.4745L31.1195 33.9999ZM26.0804 26.4882V29.535H27.4163C27.6624 29.535 27.889 29.4979 28.096 29.4237C28.307 29.3495 28.4886 29.244 28.6409 29.1073C28.7933 28.9667 28.9124 28.7968 28.9984 28.5975C29.0843 28.3944 29.1273 28.1678 29.1273 27.9178C29.1273 27.4686 28.9808 27.119 28.6878 26.869C28.3988 26.6151 27.9788 26.4882 27.4281 26.4882H26.0804ZM47.2463 34.1405C46.0549 34.1405 45.0998 33.7479 44.3811 32.9628C43.6663 32.1776 43.3088 31.1561 43.3088 29.8983C43.3088 28.5468 43.6741 27.4686 44.4045 26.6639C45.135 25.8593 46.1291 25.4569 47.387 25.4569C48.5471 25.4569 49.4807 25.8475 50.1877 26.6288C50.8987 27.41 51.2541 28.4315 51.2541 29.6932C51.2541 31.0643 50.8909 32.1483 50.1643 32.9452C49.4377 33.7421 48.4651 34.1405 47.2463 34.1405ZM47.3166 26.3475C46.4338 26.3475 45.717 26.6659 45.1663 27.3026C44.6155 27.9393 44.3401 28.7753 44.3401 29.8104C44.3401 30.8456 44.6077 31.6796 45.1428 32.3124C45.6819 32.9413 46.3831 33.2557 47.2463 33.2557C48.1682 33.2557 48.8948 32.955 49.426 32.3534C49.9573 31.7518 50.2229 30.91 50.2229 29.828C50.2229 28.7186 49.9651 27.8612 49.4495 27.2557C48.9338 26.6503 48.2229 26.3475 47.3166 26.3475ZM65.4709 30.8241V33.9999H64.4865V25.5975H66.7951C67.6935 25.5975 68.3888 25.8163 68.881 26.2538C69.3771 26.6913 69.6252 27.3085 69.6252 28.1053C69.6252 28.9022 69.3498 29.5546 68.799 30.0624C68.2521 30.5702 67.5119 30.8241 66.5783 30.8241H65.4709ZM65.4709 26.4882V29.9335H66.5021C67.1818 29.9335 67.6994 29.7792 68.0548 29.4706C68.4142 29.1581 68.5939 28.7186 68.5939 28.1522C68.5939 27.0428 67.9377 26.4882 66.6252 26.4882H65.4709ZM82.4005 33.66V32.4999C82.5333 32.6171 82.6915 32.7225 82.8751 32.8163C83.0626 32.91 83.2579 32.9901 83.461 33.0565C83.6681 33.119 83.8751 33.1678 84.0821 33.203C84.2891 33.2382 84.4806 33.2557 84.6563 33.2557C85.2618 33.2557 85.713 33.1444 86.0098 32.9218C86.3106 32.6952 86.461 32.371 86.461 31.9491C86.461 31.7225 86.4102 31.5253 86.3087 31.3573C86.211 31.1893 86.0743 31.037 85.8985 30.9003C85.7227 30.7596 85.5138 30.6268 85.2716 30.5018C85.0333 30.3729 84.7755 30.2382 84.4981 30.0975C84.2052 29.9491 83.9317 29.7987 83.6778 29.6464C83.4239 29.494 83.2032 29.326 83.0157 29.1425C82.8282 28.9589 82.6798 28.7518 82.5704 28.5214C82.4649 28.287 82.4122 28.0135 82.4122 27.701C82.4122 27.3182 82.4962 26.9862 82.6641 26.705C82.8321 26.4198 83.0528 26.1854 83.3263 26.0018C83.5997 25.8182 83.9102 25.6815 84.2579 25.5917C84.6095 25.5018 84.9669 25.4569 85.3302 25.4569C86.1583 25.4569 86.7618 25.5565 87.1407 25.7557V26.8632C86.6446 26.5194 86.0079 26.3475 85.2306 26.3475C85.0157 26.3475 84.8009 26.371 84.586 26.4178C84.3712 26.4608 84.1798 26.5331 84.0118 26.6346C83.8438 26.7362 83.7071 26.8671 83.6016 27.0272C83.4962 27.1874 83.4434 27.3827 83.4434 27.6132C83.4434 27.828 83.4825 28.0135 83.5606 28.1698C83.6427 28.326 83.7618 28.4686 83.9181 28.5975C84.0743 28.7264 84.2638 28.8514 84.4864 28.9725C84.713 29.0936 84.9727 29.2264 85.2657 29.371C85.5665 29.5194 85.8516 29.6757 86.1212 29.8397C86.3907 30.0038 86.627 30.1854 86.8302 30.3846C87.0333 30.5839 87.1934 30.8046 87.3106 31.0468C87.4317 31.2889 87.4923 31.5663 87.4923 31.8788C87.4923 32.2928 87.4102 32.6444 87.2462 32.9335C87.086 33.2186 86.8673 33.451 86.5899 33.6307C86.3165 33.8104 86.0001 33.9393 85.6407 34.0175C85.2813 34.0995 84.9024 34.1405 84.504 34.1405C84.3712 34.1405 84.2071 34.1288 84.0118 34.1053C83.8165 34.0858 83.6173 34.0546 83.4141 34.0116C83.211 33.9725 83.0177 33.9237 82.8341 33.8651C82.6544 33.8026 82.5098 33.7343 82.4005 33.66Z" fill="white"/>
<defs>
<filter id="filter0_d_91_126" x="0.000396729" y="-0.00012207" width="95.1278" height="28.8945" filterUnits="userSpaceOnUse" color-interpolation-filters="sRGB">
<feFlood flood-opacity="0" result="BackgroundImageFix"/>
<feColorMatrix in="SourceAlpha" type="matrix" values="0 0 0 0 0 0 0 0 0 0 0 0 0 0 0 0 0 0 127 0" result="hardAlpha"/>
<feOffset dy="4"/>
<feGaussianBlur stdDeviation="2"/>
<feComposite in2="hardAlpha" operator="out"/>
<feColorMatrix type="matrix" values="0 0 0 0 0 0 0 0 0 0 0 0 0 0 0 0 0 0 0.25 0"/>
<feBlend mode="normal" in2="BackgroundImageFix" result="effect1_dropShadow_91_126"/>
<feBlend mode="normal" in="SourceGraphic" in2="effect1_dropShadow_91_126" result="shape"/>
</filter>
</defs>
</svg>
